<svg width="32" height="32" viewBox="0 0 32 32" fill="none" xmlns="http://www.w3.org/2000/svg">
  <!-- ChainSync Favicon - Water Drop with Waves -->
  <defs>
    <linearGradient id="favGradient" x1="50%" y1="0%" x2="50%" y2="100%">
      <stop offset="0%" style="stop-color:#4ECFEF;stop-opacity:1" />
      <stop offset="50%" style="stop-color:#2DBDA8;stop-opacity:1" />
      <stop offset="100%" style="stop-color:#22CC88;stop-opacity:1" />
    </linearGradient>
  </defs>

  <!-- Water Drop -->
  <g transform="translate(4, 1)">
    <!-- Drop outline -->
    <path d="M12 1
             C12 1 1 14 1 21
             C1 27 6 30 12 30
             C18 30 23 27 23 21
             C23 14 12 1 12 1 Z"
          fill="none"
          stroke="url(#favGradient)"
          stroke-width="2.5"
          stroke-linecap="round"
          stroke-linejoin="round"/>

    <!-- Inner arrow -->
    <path d="M12 7 L16 13 L12 12 L8 13 Z"
          fill="url(#favGradient)"
          opacity="0.9"/>

    <!-- Upper wave -->
    <path d="M4 19 C7 16 9 18 12 17 C15 16 17 18 20 19"
          fill="none"
          stroke="url(#favGradient)"
          stroke-width="2"
          stroke-linecap="round"/>

    <!-- Lower wave -->
    <path d="M5 25 C8 22 10 24 12 23 C14 22 16 24 19 25"
          fill="none"
          stroke="url(#favGradient)"
          stroke-width="2"
          stroke-linecap="round"/>
  </g>
</svg>
