<?xml version="1.0" encoding="UTF-8" standalone="no"?>
<!-- Created with Inkscape (http://www.inkscape.org/) -->

<svg
   version="1.1"
   id="svg152116"
   width="1066.6667"
   height="1066.6667"
   viewBox="0 0 1066.6667 1066.6667"
   sodipodi:docname="warning-ice-pdv.svg"
   inkscape:version="1.2 (dc2aedaf03, 2022-05-15)"
   xmlns:inkscape="http://www.inkscape.org/namespaces/inkscape"
   xmlns:sodipodi="http://sodipodi.sourceforge.net/DTD/sodipodi-0.dtd"
   xmlns="http://www.w3.org/2000/svg"
   xmlns:svg="http://www.w3.org/2000/svg">
  <defs
     id="defs152120">
    <radialGradient
       fx="0"
       fy="0"
       cx="0"
       cy="0"
       r="1"
       gradientUnits="userSpaceOnUse"
       gradientTransform="matrix(557.53748,0,0,-557.53748,402.13736,413.49921)"
       spreadMethod="pad"
       id="radialGradient152146">
      <stop
         style="stop-opacity:1;stop-color:#ffffff"
         offset="0"
         id="stop152138" />
      <stop
         style="stop-opacity:1;stop-color:#ffffff"
         offset="0.220944"
         id="stop152140" />
      <stop
         style="stop-opacity:1;stop-color:#ffffff"
         offset="0.84347788"
         id="stop152142" />
      <stop
         style="stop-opacity:1;stop-color:#c8c8c8"
         offset="1"
         id="stop152144" />
    </radialGradient>
    <linearGradient
       x1="0"
       y1="0"
       x2="1"
       y2="0"
       gradientUnits="userSpaceOnUse"
       gradientTransform="matrix(694.99847,0,0,-694.99847,52.5005,400)"
       spreadMethod="pad"
       id="linearGradient152174">
      <stop
         style="stop-opacity:1;stop-color:#ffffff"
         offset="0"
         id="stop152162" />
      <stop
         style="stop-opacity:1;stop-color:#ffffff"
         offset="0.0624113"
         id="stop152164" />
      <stop
         style="stop-opacity:1;stop-color:#a2a4a7"
         offset="0.108678"
         id="stop152166" />
      <stop
         style="stop-opacity:1;stop-color:#ffffff"
         offset="0.44382"
         id="stop152168" />
      <stop
         style="stop-opacity:1;stop-color:#d9dbdc"
         offset="0.735955"
         id="stop152170" />
      <stop
         style="stop-opacity:1;stop-color:#ffffff"
         offset="1"
         id="stop152172" />
    </linearGradient>
    <clipPath
       clipPathUnits="userSpaceOnUse"
       id="clipPath152184">
      <path
         d="M 0,800 H 800 V 0 H 0 Z"
         id="path152182" />
    </clipPath>
    <clipPath
       clipPathUnits="userSpaceOnUse"
       id="clipPath152200">
      <path
         d="M 137.284,616.182 H 665.121 V 152.704 H 137.284 Z"
         id="path152198" />
    </clipPath>
    <clipPath
       clipPathUnits="userSpaceOnUse"
       id="clipPath152228">
      <path
         d="M 52.5005,709.812 H 587.078 V 90.1885 H 52.5005 Z"
         id="path152226" />
    </clipPath>
    <linearGradient
       x1="0"
       y1="0"
       x2="1"
       y2="0"
       gradientUnits="userSpaceOnUse"
       gradientTransform="matrix(236.22733,-236.22733,-236.22733,-236.22733,161.05157,498.28604)"
       spreadMethod="pad"
       id="linearGradient152238">
      <stop
         style="stop-opacity:1;stop-color:#414042"
         offset="0"
         id="stop152234" />
      <stop
         style="stop-opacity:1;stop-color:#808285"
         offset="1"
         id="stop152236" />
    </linearGradient>
  </defs>
  <sodipodi:namedview
     id="namedview152118"
     pagecolor="#ffffff"
     bordercolor="#000000"
     borderopacity="0.25"
     inkscape:showpageshadow="2"
     inkscape:pageopacity="0.0"
     inkscape:pagecheckerboard="0"
     inkscape:deskcolor="#d1d1d1"
     showgrid="false"
     inkscape:zoom="0.7846874"
     inkscape:cx="533.3334"
     inkscape:cy="533.97059"
     inkscape:window-width="1920"
     inkscape:window-height="1017"
     inkscape:window-x="-8"
     inkscape:window-y="-8"
     inkscape:window-maximized="1"
     inkscape:current-layer="g152124">
    <inkscape:page
       x="0"
       y="0"
       id="page152122"
       width="1066.6667"
       height="1066.6667" />
  </sodipodi:namedview>
  <g
     id="g152124"
     inkscape:groupmode="layer"
     inkscape:label="Page 1"
     transform="matrix(1.3333333,0,0,-1.3333333,0,1066.6667)">
    <g
       id="g152126">
      <g
         id="g152128">
        <g
           id="g152134">
          <g
             id="g152136">
            <path
               d="M 0,0 H 800 V 800 H 0 Z"
               style="fill:url(#radialGradient152146);stroke:none"
               id="path152148" />
          </g>
        </g>
      </g>
    </g>
    <g
       id="g152150">
      <g
         id="g152152">
        <g
           id="g152158">
          <g
             id="g152160">
            <path
               d="M 342.68,676.75 61.276,189.436 c -5.741,-9.974 -8.775,-21.4 -8.775,-33.041 v 0 c 0,-36.39 29.6,-66.089 66.021,-66.207 v 0 h 562.854 c 36.46,0 66.123,29.701 66.123,66.207 v 0 c 0,11.729 -3.094,23.187 -8.897,33.054 v 0 l -281.383,487.3 c -11.777,20.394 -33.721,33.062 -57.269,33.062 v 0 c -23.548,0 -45.493,-12.668 -57.27,-33.061"
               style="fill:url(#linearGradient152174);stroke:none"
               id="path152176" />
          </g>
        </g>
      </g>
    </g>
    <g
       id="g152178">
      <g
         id="g152180"
         clip-path="url(#clipPath152184)">
        <g
           id="g152186"
           transform="translate(118.5215,90.1885)">
          <path
             d="m 0,0 c -36.421,0.117 -66.021,29.816 -66.021,66.206 0,11.642 3.034,23.067 8.775,33.041 l 281.405,487.315 c 11.777,20.393 33.721,33.061 57.269,33.061 23.549,0 45.493,-12.668 57.269,-33.062 l 281.384,-487.3 c 5.803,-9.868 8.897,-21.326 8.897,-33.055 C 628.978,29.7 599.315,0 562.854,0 Z"
             style="fill:none;stroke:#d1d3d4;stroke-width:2;stroke-linecap:butt;stroke-linejoin:miter;stroke-miterlimit:10;stroke-dasharray:none;stroke-opacity:1"
             id="path152188" />
        </g>
        <g
           id="g152190"
           transform="translate(586.6797,102.1504)">
          <path
             d="m 0,0 h 94.696 c 29.834,0 54.161,24.332 54.161,54.244 0,9.569 -2.47,18.873 -7.294,27.073 l -281.383,487.3 c -9.677,16.758 -27.559,27.082 -46.91,27.082 -19.351,0 -37.233,-10.322 -46.911,-27.08 L -515.037,81.317 c -4.72,-8.2 -7.181,-17.593 -7.181,-27.073 0,-29.912 24.136,-54.148 54.06,-54.244 l 94.799,0 z"
             style="fill:#ed1c24;fill-opacity:1;fill-rule:nonzero;stroke:none"
             id="path152192" />
        </g>
        <g
           id="g152194">
          <g
             id="g152196" />
          <g
             id="g152208">
            <g
               clip-path="url(#clipPath152200)"
               id="g152206">
              <g
                 transform="translate(641.4561,162.5811)"
                 id="g152204">
                <path
                   d="m 0,0 c 7.602,0 13.786,6.22 13.786,13.861 0,2.411 -0.605,4.717 -1.787,6.731 l -240.351,416.236 c -2.456,4.253 -7.032,6.895 -11.944,6.895 -4.912,0 -9.489,-2.642 -11.945,-6.896 L -492.488,20.784 c -1.181,-2.049 -1.805,-4.444 -1.805,-6.923 0,-7.618 6.161,-13.835 13.7,-13.861 z m -480.593,-9.877 c -12.969,0.044 -23.579,10.69 -23.579,23.738 0,4.205 1.08,8.306 3.123,11.853 l 240.253,416.053 c 4.215,7.3 12.071,11.834 20.5,11.834 8.429,0 16.285,-4.534 20.499,-11.834 L 20.553,25.531 c 2.035,-3.463 3.112,-7.497 3.112,-11.67 C 23.665,0.773 13.049,-9.877 0,-9.877 Z"
                   style="fill:#bcbec0;fill-opacity:1;fill-rule:nonzero;stroke:none"
                   id="path152202" />
              </g>
            </g>
          </g>
        </g>
        <g
           id="g152210"
           transform="translate(158.4565,155.1104)">
          <path
             d="m 0,0 c -12.969,0.042 -23.579,10.69 -23.579,23.736 0,4.207 1.08,8.306 3.123,11.852 l 240.253,416.055 c 4.215,7.3 12.071,11.835 20.501,11.835 8.428,0 16.285,-4.535 20.498,-11.835 L 501.146,35.408 c 2.036,-3.463 3.112,-7.497 3.112,-11.672 C 504.258,10.648 493.643,0 480.593,0 Z"
             style="fill:#ffffff;fill-opacity:1;fill-rule:nonzero;stroke:none"
             id="path152212" />
        </g>
        <g
           id="g152214"
           transform="translate(158.4565,155.1104)">
          <path
             d="m 0,0 c -12.969,0.042 -23.579,10.69 -23.579,23.736 0,4.207 1.08,8.306 3.123,11.852 l 240.253,416.055 c 4.215,7.3 12.071,11.835 20.501,11.835 8.428,0 16.285,-4.535 20.498,-11.835 L 501.146,35.408 c 2.036,-3.463 3.112,-7.497 3.112,-11.672 C 504.258,10.648 493.643,0 480.593,0 Z"
             style="fill:none;stroke:#be1e2d;stroke-width:2;stroke-linecap:butt;stroke-linejoin:miter;stroke-miterlimit:10;stroke-dasharray:none;stroke-opacity:1"
             id="path152216" />
        </g>
        <g
           id="g152218"
           transform="translate(428.002,306.8076)">
          <path
             d="M 0,0 -17.286,0.882 -16.404,-16.404 -28.003,-3.557 -39.6,-16.404 -38.718,0.882 -56.004,0 -43.157,11.599 -56.004,23.197 -38.718,22.314 -39.6,39.601 -28.003,26.753 -16.404,39.601 -17.286,22.314 0,23.197 -12.848,11.599 Z m 77.319,18.3 -3.15,2.465 -5.303,-6.779 H 46.6 L 57.53,27.96 54.38,30.425 41.521,13.986 H 11.03 l 24.865,22.447 c 0.765,-1.02 1.971,-1.688 3.343,-1.688 2.313,0 4.187,1.875 4.187,4.188 0,2.312 -1.874,4.187 -4.187,4.187 -2.208,0 -3.999,-1.715 -4.158,-3.883 l -34.071,-1.74 17.675,17.676 19.16,-2.343 0.486,3.971 -16.055,1.963 14.207,14.207 7.955,-0.973 0.485,3.971 -7.634,0.933 -0.934,7.634 -3.97,-0.484 0.975,-7.98 -14.207,-14.207 -1.966,16.079 -3.97,-0.486 2.345,-19.185 -17.664,-17.664 1.74,34.07 c 0.099,-0.007 0.194,-0.03 0.296,-0.03 2.313,0 4.189,1.875 4.189,4.188 0,2.313 -1.876,4.188 -4.189,4.188 -2.313,0 -4.189,-1.875 -4.189,-4.188 0,-1.211 0.522,-2.293 1.344,-3.058 l -22.7,-25.142 v 30.511 l 16.423,12.845 -2.464,3.151 -13.959,-10.917 v 22.266 l 6.762,5.289 -2.465,3.151 -6.687,-5.231 -6.688,5.231 -2.464,-3.151 6.762,-5.289 V 86.227 l -13.959,10.917 -2.464,-3.151 16.423,-12.845 V 50.633 l -22.702,25.146 c 0.821,0.765 1.343,1.847 1.343,3.058 0,2.313 -1.875,4.188 -4.188,4.188 -2.313,0 -4.188,-1.875 -4.188,-4.188 0,-2.313 1.875,-4.188 4.188,-4.188 0.102,0 0.197,0.023 0.297,0.031 l 1.741,-34.073 -17.665,17.665 2.347,19.186 -3.971,0.486 -1.966,-16.082 -14.207,14.207 0.975,7.983 -3.97,0.484 -0.934,-7.634 -7.634,-0.933 0.485,-3.971 7.954,0.972 14.206,-14.206 -16.053,-1.963 0.486,-3.971 19.158,2.342 17.675,-17.675 -34.071,1.74 c -0.159,2.168 -1.948,3.883 -4.157,3.883 -2.313,0 -4.188,-1.875 -4.188,-4.187 0,-2.313 1.875,-4.188 4.188,-4.188 1.372,0 2.578,0.669 3.342,1.688 l 24.864,-22.447 h -30.488 l -12.858,16.439 -3.151,-2.465 10.93,-13.974 h -22.266 l -5.302,6.779 -3.151,-2.465 5.231,-6.688 -5.231,-6.688 3.151,-2.465 5.278,6.749 h 22.266 l -10.906,-13.944 3.151,-2.465 12.834,16.409 h 30.509 l -25.145,-22.701 c -0.765,0.821 -1.847,1.344 -3.058,1.344 -2.313,0 -4.188,-1.875 -4.188,-4.189 0,-2.312 1.875,-4.188 4.188,-4.188 2.313,0 4.188,1.876 4.188,4.188 0,0.102 -0.023,0.196 -0.03,0.297 l 34.072,1.739 -17.649,-17.649 -19.186,2.346 -0.486,-3.971 16.081,-1.966 -14.207,-14.208 -7.981,0.977 -0.485,-3.971 7.634,-0.935 0.934,-7.632 3.97,0.484 -0.972,7.956 14.207,14.207 1.963,-16.056 3.971,0.487 -2.343,19.16 17.66,17.66 -1.74,-34.071 c -0.1,0.008 -0.195,0.03 -0.297,0.03 -2.313,0 -4.188,-1.875 -4.188,-4.188 0,-2.313 1.875,-4.188 4.188,-4.188 2.313,0 4.188,1.875 4.188,4.188 0,1.211 -0.522,2.293 -1.343,3.058 l 22.702,25.147 v -30.487 l -16.423,-12.845 2.464,-3.151 13.959,10.918 v -22.266 l -6.762,-5.291 2.464,-3.15 6.688,5.232 6.687,-5.232 2.465,3.15 -6.762,5.291 v 22.266 l 13.959,-10.918 2.464,3.151 -16.423,12.845 v 30.483 l 22.7,-25.143 c -0.822,-0.765 -1.344,-1.847 -1.344,-3.058 0,-2.313 1.876,-4.188 4.189,-4.188 2.313,0 4.189,1.875 4.189,4.188 0,2.313 -1.876,4.188 -4.189,4.188 -0.102,0 -0.197,-0.022 -0.296,-0.03 l -1.74,34.069 17.661,-17.661 -2.342,-19.157 3.97,-0.487 1.963,16.053 14.206,-14.207 -0.971,-7.953 3.97,-0.484 0.933,7.632 7.636,0.935 -0.487,3.971 -7.981,-0.977 -14.208,14.208 16.083,1.966 -0.486,3.971 -19.188,-2.346 -17.649,17.649 34.072,-1.739 c -0.007,-0.1 -0.03,-0.195 -0.03,-0.297 0,-2.312 1.877,-4.188 4.189,-4.188 2.313,0 4.187,1.876 4.187,4.188 0,2.314 -1.874,4.189 -4.187,4.189 -1.211,0 -2.293,-0.523 -3.057,-1.344 L 11.033,9.208 H 41.545 L 54.38,-7.201 57.53,-4.736 46.623,9.208 H 68.89 l 5.279,-6.749 3.15,2.465 -5.231,6.688 z"
             style="fill:#000000;fill-opacity:1;fill-rule:nonzero;stroke:none"
             id="path152220" />
        </g>
        <g
           id="g152222">
          <g
             id="g152224" />
          <g
             id="g152252">
            <g
               clip-path="url(#clipPath152228)"
               opacity="0.199997"
               id="g152250">
              <g
                 id="g152248">
                <g
                   id="g152246">
                  <g
                     id="g152244">
                    <g
                       id="g152242">
                      <path
                         d="m 118.521,90.189 c -36.42,0.117 -66.02,29.816 -66.02,66.206 0,11.641 3.034,23.067 8.774,33.041 L 342.681,676.75 c 11.776,20.394 33.72,33.062 57.269,33.062 23.548,0 45.492,-12.669 57.269,-33.063 L 587.078,451.858 577.6,445.667 C 425.24,346.146 285.219,227.836 161.426,94.027 l -3.551,-3.838 z"
                         style="fill:url(#linearGradient152238);stroke:none"
                         id="path152240" />
                    </g>
                  </g>
                </g>
              </g>
            </g>
          </g>
        </g>
      </g>
    </g>
  </g>
</svg>
